<svg xmlns="http://www.w3.org/2000/svg" width="1024" height="1024" viewBox="0 0 200 200">
  <polygon points="100,20 169.28,60 134.64,80 100,60" fill="#39c3cd" opacity="0.15"/>
  <polygon points="100,20 100,60 65.36,80 30.72,60" fill="#39c3cd" opacity="0.12"/>
  <polygon points="169.28,60 169.28,140 134.64,120 134.64,80" fill="#39c3cd" opacity="0.08"/>
  <polygon points="30.72,60 65.36,80 65.36,120 30.72,140" fill="#39c3cd" opacity="0.10"/>
  <polygon points="169.28,140 100,180 100,140 134.64,120" fill="#39c3cd" opacity="0.05"/>
  <polygon points="30.72,140 65.36,120 100,140 100,180" fill="#39c3cd" opacity="0.06"/>
  <polygon points="100,60 134.64,80 134.64,120 100,140 65.36,120 65.36,80" fill="#13263b"/>
  <g stroke="#39c3cd" stroke-width="6" fill="none" stroke-linejoin="round">
    <polygon points="100,20 169.28,60 169.28,140 100,180 30.72,140 30.72,60"/>
    <polygon points="100,60 134.64,80 134.64,120 100,140 65.36,120 65.36,80"/>
    <line x1="100" y1="20" x2="100" y2="60"/>
    <line x1="169.28" y1="60" x2="134.64" y2="80"/>
    <line x1="169.28" y1="140" x2="134.64" y2="120"/>
    <line x1="100" y1="180" x2="100" y2="140"/>
    <line x1="30.72" y1="140" x2="65.36" y2="120"/>
    <line x1="30.72" y1="60" x2="65.36" y2="80"/>
    <line x1="100" y1="60" x2="134.64" y2="40"/>
    <line x1="134.64" y1="120" x2="134.64" y2="160"/>
    <line x1="65.36" y1="120" x2="30.72" y2="100"/>
  </g>
  <g fill="#39c3cd">
    <circle cx="100" cy="20" r="6.5"/><circle cx="169.28" cy="60" r="6.5"/>
    <circle cx="169.28" cy="140" r="6.5"/><circle cx="100" cy="180" r="6.5"/>
    <circle cx="30.72" cy="140" r="6.5"/><circle cx="30.72" cy="60" r="6.5"/>
  </g>
  <text x="100" y="100" text-anchor="middle" dominant-baseline="central" fill="#39c3cd" font-family="Sora,sans-serif" font-weight="600" font-size="42">LL</text>
</svg>